# Blender v2.78 (sub 0) OBJ File: ''
# www.blender.org
mtllib enclosure.mtl
o Cube_Cube.002
v -2.000000 -2.000000 0.002350
v -2.000000 -2.000000 0.566340
v -2.000000 2.000000 0.566340
v -2.000000 2.000000 0.002350
v 2.000000 2.000000 0.566340
v 2.000000 2.000000 0.002350
v 2.000000 -2.000000 0.566340
v 2.000000 -2.000000 0.002350
v 1.900000 1.900000 0.002350
v -1.900000 1.900000 0.002350
v 1.900000 1.900000 0.566340
v 1.900000 -1.900000 0.566340
v -1.900000 -1.900000 0.566340
v 1.900000 -1.900000 0.002350
v -1.900000 1.900000 0.566340
v -1.900000 -1.900000 0.002350
vn -1.0000 0.0000 0.0000
vn 0.0000 1.0000 0.0000
vn 1.0000 0.0000 0.0000
vn 0.0000 -1.0000 0.0000
vn -0.3162 0.0000 -0.9487
vn 0.0000 0.0000 -1.0000
vn 0.0000 0.0000 1.0000
usemtl None.001
s 1
f 1//1 2//1 3//1 4//1
f 4//2 3//2 5//2 6//2
f 6//3 5//3 7//3 8//3
f 8//4 7//4 2//4 1//4
f 14//5 9//5 6//6 8//6
f 15//7 3//7 2//7 13//7
f 12//1 11//1 9//5 14//5
f 9//4 11//4 15//4 10//4
f 12//7 13//7 2//7 7//7
f 10//3 15//3 13//3 16//3
f 16//2 13//2 12//2 14//2
f 4//6 6//6 9//5 10//6
f 1//6 4//6 10//6 16//6
f 14//5 8//6 1//6 16//6
f 3//7 15//7 11//7 5//7
f 12//7 7//7 5//7 11//7
