# Blender v2.78 (sub 0) OBJ File: ''
# www.blender.org
mtllib trapwall.mtl
o Cube_Cube.000
v -0.050081 -0.787714 0.008334
v -0.050081 -0.787714 0.572325
v -0.050082 0.787714 0.572325
v -0.050082 0.787714 0.008334
v 0.049918 0.787714 0.572325
v 0.049918 0.787714 0.008334
v 0.049919 -0.787714 0.008334
v 0.049919 -0.787714 0.572325
vn -1.0000 -0.0000 0.0000
vn 0.0000 1.0000 0.0000
vn 0.0000 -1.0000 0.0000
vn 1.0000 0.0000 0.0000
vn 0.0000 0.0000 1.0000
usemtl None
s 1
f 1//1 2//1 3//1 4//1
f 4//2 3//2 5//2 6//2
f 1//3 7//3 8//3 2//3
f 6//4 5//4 8//4 7//4
f 3//5 2//5 8//5 5//5
